<svg width="700" height="854" viewBox="0 0 700 854" fill="none" xmlns="http://www.w3.org/2000/svg">
<g filter="url(#filter0_d_3522_159)">
<rect width="690" height="854" rx="4" fill="url(#paint0_linear_3522_159)"/>
</g>
<path fill-rule="evenodd" clip-rule="evenodd" d="M500.5 177.633C605.158 177.633 690 91.9774 690 -13.6837C690 -119.345 605.158 -205 500.5 -205C395.842 -205 311 -119.345 311 -13.6837C311 91.9774 395.842 177.633 500.5 177.633ZM500.5 123.144C575.733 123.144 636.722 61.613 636.722 -14.2891C636.722 -90.1912 575.733 -151.722 500.5 -151.722C425.267 -151.722 364.278 -90.1912 364.278 -14.2891C364.278 61.613 425.267 123.144 500.5 123.144Z" fill="#00ADC3"/>
<path opacity="0.6" d="M53.9766 657.24L95.7681 686.791L53.9766 718.725L12.1851 686.791L53.9766 657.24Z" fill="#00ADC3"/>
<path opacity="0.6" d="M12.239 686.792L53.9761 718.116L53.9761 761.5L9.49718 728.529L12.239 686.792Z" fill="url(#paint1_linear_3522_159)"/>
<path opacity="0.6" d="M53.8675 759.5L53.8674 718.421L95.6014 686.792L92.0573 731.521L53.8675 759.5Z" fill="#00ADC3"/>
<path opacity="0.6" d="M280.106 795.439L308.918 815.812L280.106 837.827L251.295 815.812L280.106 795.439Z" fill="#00ADC3"/>
<path opacity="0.6" d="M251.333 815.812L280.107 837.407L280.107 872.482L249.442 844.586L251.333 815.812Z" fill="url(#paint2_linear_3522_159)"/>
<path opacity="0.6" d="M280.031 872.692L280.031 837.617L308.803 815.812L306.36 846.648L280.031 872.692Z" fill="#00ADC3"/>
<path opacity="0.6" d="M96.9766 76L138.768 100.791L96.9766 132.725L55.1851 100.791L96.9766 76Z" fill="#00ADC3"/>
<path opacity="0.6" d="M55.239 100.792L96.9761 132.116L96.9761 177L52.4972 142.529L55.239 100.792Z" fill="url(#paint3_linear_3522_159)"/>
<path opacity="0.6" d="M96.8675 175L96.8674 132.421L138.601 100.792L135.057 145.521L96.8675 175Z" fill="#00ADC3"/>
<path opacity="0.6" d="M383.022 196.103L407.86 210.838L383.022 229.817L358.185 210.838L383.022 196.103Z" fill="#00ADC3"/>
<path opacity="0.6" d="M358.217 210.838L383.023 229.454L383.023 256.13L356.588 235.643L358.217 210.838Z" fill="url(#paint4_linear_3522_159)"/>
<path opacity="0.6" d="M382.958 254.941L382.958 229.636L407.762 210.838L405.656 237.421L382.958 254.941Z" fill="#00ADC3"/>
<rect x="473.5" y="239.5" width="66" height="66" stroke="#00E2FF"/>
<path opacity="0.6" d="M629.022 437.103L653.86 451.838L629.022 470.817L604.185 451.838L629.022 437.103Z" fill="#00ADC3"/>
<path opacity="0.6" d="M604.217 451.838L629.023 470.454L629.023 497.13L602.588 476.643L604.217 451.838Z" fill="url(#paint5_linear_3522_159)"/>
<path opacity="0.6" d="M628.958 495.941L628.958 470.636L653.762 451.838L651.656 478.421L628.958 495.941Z" fill="#00ADC3"/>
<path d="M690 747C663.49 747 642 725.51 642 699C642 672.49 663.49 651 690 651" stroke="#00E2FF"/>
<defs>
<filter id="filter0_d_3522_159" x="-10" y="-5" width="710" height="874" filterUnits="userSpaceOnUse" color-interpolation-filters="sRGB">
<feFlood flood-opacity="0" result="BackgroundImageFix"/>
<feColorMatrix in="SourceAlpha" type="matrix" values="0 0 0 0 0 0 0 0 0 0 0 0 0 0 0 0 0 0 127 0" result="hardAlpha"/>
<feOffset dy="5"/>
<feGaussianBlur stdDeviation="5"/>
<feComposite in2="hardAlpha" operator="out"/>
<feColorMatrix type="matrix" values="0 0 0 0 0.27451 0 0 0 0 0.14902 0 0 0 0 0.890196 0 0 0 0.1 0"/>
<feBlend mode="normal" in2="BackgroundImageFix" result="effect1_dropShadow_3522_159"/>
<feBlend mode="normal" in="SourceGraphic" in2="effect1_dropShadow_3522_159" result="shape"/>
</filter>
<linearGradient id="paint0_linear_3522_159" x1="676.048" y1="-0.000140702" x2="-19.5002" y2="869" gradientUnits="userSpaceOnUse">
<stop stop-color="#04A4B9"/>
<stop offset="0.957354" stop-color="#00E2FF"/>
</linearGradient>
<linearGradient id="paint1_linear_3522_159" x1="30.5181" y1="711.468" x2="30.5181" y2="750.768" gradientUnits="userSpaceOnUse">
<stop stop-color="#00ADC3"/>
<stop offset="1" stop-color="#007988"/>
</linearGradient>
<linearGradient id="paint2_linear_3522_159" x1="263.934" y1="832.824" x2="263.934" y2="859.918" gradientUnits="userSpaceOnUse">
<stop stop-color="#00ADC3"/>
<stop offset="1" stop-color="#00899A"/>
</linearGradient>
<linearGradient id="paint3_linear_3522_159" x1="73.5181" y1="125.468" x2="73.5181" y2="164.768" gradientUnits="userSpaceOnUse">
<stop stop-color="#01A9BE"/>
<stop offset="1" stop-color="#00A9BF"/>
</linearGradient>
<linearGradient id="paint4_linear_3522_159" x1="369.081" y1="225.504" x2="369.081" y2="248.86" gradientUnits="userSpaceOnUse">
<stop stop-color="#009AAD"/>
<stop offset="1" stop-color="#00ADC3"/>
</linearGradient>
<linearGradient id="paint5_linear_3522_159" x1="615.081" y1="466.504" x2="615.081" y2="489.86" gradientUnits="userSpaceOnUse">
<stop stop-color="#04BBD0"/>
<stop offset="1" stop-color="#0496A8"/>
</linearGradient>
</defs>
</svg>
