<svg width="23" height="31" viewBox="0 0 23 31" fill="none" xmlns="http://www.w3.org/2000/svg">
<path d="M18.7434 2.5163H17.2341C16.69 2.5163 16.249 2.95735 16.249 3.50142V8.9874C16.249 9.53147 16.69 9.97252 17.2341 9.97252H18.7434C19.2875 9.97252 19.7285 9.53147 19.7285 8.9874V3.50142C19.7285 2.95735 19.2875 2.5163 18.7434 2.5163Z" fill="#FBBC04"/>
<path d="M13.0996 30.5025V25.3053H19.4972L13.9482 30.8544C13.8787 30.924 13.7901 30.9714 13.6936 30.9905C13.5971 31.0096 13.4971 30.9998 13.4063 30.9622C13.3154 30.9245 13.2378 30.8606 13.1832 30.7788C13.1286 30.6971 13.0995 30.6008 13.0996 30.5025Z" fill="#FBBC04"/>
<path d="M19.84 24.9824H13.0996V25.6053H19.1847L19.84 24.9824Z" fill="#D7A207"/>
<path d="M21.2261 9.59455L12.0192 0.386849C11.7702 0.139088 11.4333 0 11.082 0C10.7307 0 10.3938 0.139088 10.1448 0.386849L0.938087 9.59455C0.376268 10.2194 0.0452275 11.0177 0 11.8568V13.4786C5.02994 17.2209 11.1346 19.2373 17.4039 19.2273C18.9984 19.2276 20.5902 19.098 22.1636 18.8398V11.8568C22.1178 11.0179 21.7872 10.2198 21.2261 9.59455Z" fill="#FBBC04"/>
<path d="M17.404 20.7185C11.1346 20.7285 5.02997 18.712 0 14.9699V23.731C0.00113773 24.0822 0.141149 24.4187 0.38947 24.6669C0.637789 24.9153 0.974255 25.0553 1.32543 25.0564H20.8383C21.1894 25.0553 21.5258 24.9152 21.7742 24.6669C22.0225 24.4185 22.1624 24.0821 22.1636 23.731V20.331C20.5902 20.5892 18.9984 20.7188 17.404 20.7185Z" fill="#FBBC04"/>
</svg>
