<svg width="36" height="44" viewBox="0 0 36 44" fill="none" xmlns="http://www.w3.org/2000/svg">
<path fill-rule="evenodd" clip-rule="evenodd" d="M31.1027 4.9432L33.2579 4.22852L33.7436 1.86258L31.9211 0.262207L29.6125 1.02778L29.1266 3.39373L30.7589 4.82688L30.2147 7.06738L24.6987 8.8966L20.3446 5.07348L14.4349 7.03329L13.2604 12.7524L7.42497 14.6876L6.25596 20.3799L4.49582 20.8955L2.79442 19.4016L0.485884 20.1672L0 22.5331L1.82266 24.1335L4.13119 23.3679L4.56634 21.2491L6.20826 20.7681L10.847 24.841L16.6022 22.9324L20.7828 26.6032L19.5916 32.4037L24.1045 36.3663L23.559 38.3032L21.3802 38.9403L20.8089 41.2873L22.5723 42.9519L24.9071 42.269L25.4785 39.922L23.8987 38.4311L24.4614 36.4329L30.1671 34.5406L31.4109 28.4842L27.0191 24.628L28.1678 19.0344L33.8458 17.1514L35.0897 11.0948L30.572 7.12818L31.1027 4.9432ZM17.7892 16.6392L23.3128 14.8074L24.4789 9.12938L20.2705 5.43424L14.7128 7.2773L13.554 12.9204L17.7892 16.6392ZM20.9376 26.3133L16.7982 22.6787L17.9312 17.1621L23.582 15.2881L27.8411 19.0278L26.7401 24.389L20.9376 26.3133ZM4.4308 21.081L2.74813 19.6035L0.616918 20.3103L0.168357 22.4945L1.85101 23.972L3.98221 23.2652L4.4308 21.081ZM16.3643 22.5197L10.9085 24.3289L6.60111 20.5468L7.74939 14.9554L13.2051 13.1462L17.5125 16.9283L16.3643 22.5197ZM27.9991 18.5992L33.4549 16.7899L34.6031 11.1986L30.2957 7.41644L24.84 9.22571L23.6917 14.8171L27.9991 18.5992ZM29.7754 34.1797L24.3197 35.9891L20.0122 32.207L21.1605 26.6155L26.6162 24.8063L30.9236 28.5884L29.7754 34.1797ZM30.9732 4.79452L33.1046 4.08778L33.553 1.90356L31.8704 0.426126L29.7392 1.13289L29.2906 3.31711L30.9732 4.79452Z" fill="#9A9A9A"/>
<path d="M32.7967 3.80029L31.0317 4.41201L29.6646 3.21158L30.0624 1.39943L31.8275 0.78772L33.1946 1.98815L32.7967 3.80029Z" fill="#8CB66E"/>
<path d="M21.528 39.0873L23.6835 38.4569L25.3114 39.9937L24.7839 42.1602L22.6285 42.7906L21.0005 41.2541L21.528 39.0873Z" fill="white"/>
<path d="M21.8005 39.3972L23.5969 38.858L24.94 40.1257L24.4866 41.9323L22.6902 42.4711L21.3472 41.2034L21.8005 39.3972Z" fill="#F25790"/>
<path d="M2.72595 20.0807L4.02709 21.2183L3.6821 22.8982L2.036 23.4402L0.734863 22.3026L1.07983 20.6228L2.72595 20.0807Z" fill="#0A6AA6"/>
<path d="M15.5381 22.0642L10.9064 23.5977L7.24707 20.3847L8.21949 15.6381L12.8512 14.1045L16.5105 17.3175L15.5381 22.0642Z" fill="#00ADC3"/>
<path d="M29.17 33.6721L24.5099 35.1993L20.8125 31.9529L21.7751 27.1792L26.4352 25.652L30.1326 28.8985L29.17 33.6721Z" fill="#D9414E"/>
<path d="M32.7253 16.1166L28.0787 17.7049L24.4575 14.5254L25.4829 9.75753L30.1295 8.16919L33.7507 11.3487L32.7253 16.1166Z" fill="#FFAF4F"/>
</svg>
