<svg width="85" height="31" viewBox="0 0 85 31" fill="none" xmlns="http://www.w3.org/2000/svg">
<path d="M18.7434 2.51624H17.2341C16.69 2.51624 16.249 2.95729 16.249 3.50136V8.98734C16.249 9.53141 16.69 9.97246 17.2341 9.97246H18.7434C19.2875 9.97246 19.7285 9.53141 19.7285 8.98734V3.50136C19.7285 2.95729 19.2875 2.51624 18.7434 2.51624Z" fill="#FBBC04"/>
<path d="M13.1001 30.5025V25.3053H19.4977L13.9487 30.8544C13.8792 30.924 13.7905 30.9714 13.6941 30.9905C13.5976 31.0096 13.4976 30.9998 13.4068 30.9622C13.3159 30.9245 13.2382 30.8606 13.1837 30.7788C13.1291 30.6971 13.1 30.6008 13.1001 30.5025Z" fill="#FBBC04"/>
<path d="M19.8405 24.9824H13.1001V25.6054H19.1851L19.8405 24.9824Z" fill="#D7A207"/>
<path d="M21.2261 9.59455L12.0192 0.386849C11.7702 0.139088 11.4333 0 11.082 0C10.7307 0 10.3938 0.139088 10.1448 0.386849L0.938087 9.59455C0.376268 10.2194 0.0452275 11.0177 0 11.8568V13.4786C5.02994 17.2209 11.1346 19.2373 17.4039 19.2273C18.9984 19.2276 20.5902 19.098 22.1636 18.8398V11.8568C22.1178 11.0179 21.7872 10.2198 21.2261 9.59455Z" fill="#FBBC04"/>
<path d="M17.4044 20.7186C11.1351 20.7285 5.03046 18.7121 0.000488281 14.97V23.7311C0.00162601 24.0823 0.141637 24.4187 0.389958 24.667C0.638278 24.9154 0.974744 25.0553 1.32592 25.0565H20.8388C21.1899 25.0553 21.5263 24.9152 21.7747 24.667C22.023 24.4186 22.1629 24.0822 22.1641 23.7311V20.3311C20.5907 20.5893 18.9988 20.7189 17.4044 20.7186Z" fill="#FBBC04"/>
<path d="M43.098 13.216C43.098 13.852 42.948 14.452 42.648 15.016C42.348 15.58 41.868 16.042 41.208 16.402C40.548 16.75 39.702 16.924 38.67 16.924H36.402V22H34.35V9.49H38.67C39.63 9.49 40.44 9.658 41.1 9.994C41.772 10.318 42.27 10.762 42.594 11.326C42.93 11.89 43.098 12.52 43.098 13.216ZM38.67 15.25C39.45 15.25 40.032 15.076 40.416 14.728C40.8 14.368 40.992 13.864 40.992 13.216C40.992 11.848 40.218 11.164 38.67 11.164H36.402V15.25H38.67ZM44.3711 16.996C44.3711 16 44.5751 15.118 44.9831 14.35C45.4031 13.582 45.9671 12.988 46.6751 12.568C47.3951 12.136 48.1871 11.92 49.0511 11.92C49.8311 11.92 50.5091 12.076 51.0851 12.388C51.6731 12.688 52.1411 13.066 52.4891 13.522V12.082H54.5591V22H52.4891V20.524C52.1411 20.992 51.6671 21.382 51.0671 21.694C50.4671 22.006 49.7831 22.162 49.0151 22.162C48.1631 22.162 47.3831 21.946 46.6751 21.514C45.9671 21.07 45.4031 20.458 44.9831 19.678C44.5751 18.886 44.3711 17.992 44.3711 16.996ZM52.4891 17.032C52.4891 16.348 52.3451 15.754 52.0571 15.25C51.7811 14.746 51.4151 14.362 50.9591 14.098C50.5031 13.834 50.0111 13.702 49.4831 13.702C48.9551 13.702 48.4631 13.834 48.0071 14.098C47.5511 14.35 47.1791 14.728 46.8911 15.232C46.6151 15.724 46.4771 16.312 46.4771 16.996C46.4771 17.68 46.6151 18.28 46.8911 18.796C47.1791 19.312 47.5511 19.708 48.0071 19.984C48.4751 20.248 48.9671 20.38 49.4831 20.38C50.0111 20.38 50.5031 20.248 50.9591 19.984C51.4151 19.72 51.7811 19.336 52.0571 18.832C52.3451 18.316 52.4891 17.716 52.4891 17.032ZM62.2583 11.92C63.0383 11.92 63.7343 12.082 64.3463 12.406C64.9703 12.73 65.4563 13.21 65.8043 13.846C66.1523 14.482 66.3263 15.25 66.3263 16.15V22H64.2923V16.456C64.2923 15.568 64.0703 14.89 63.6263 14.422C63.1823 13.942 62.5763 13.702 61.8083 13.702C61.0403 13.702 60.4283 13.942 59.9723 14.422C59.5283 14.89 59.3063 15.568 59.3063 16.456V22H57.2543V12.082H59.3063V13.216C59.6423 12.808 60.0683 12.49 60.5843 12.262C61.1123 12.034 61.6703 11.92 62.2583 11.92ZM68.2598 16.996C68.2598 16 68.4638 15.118 68.8718 14.35C69.2918 13.582 69.8558 12.988 70.5638 12.568C71.2838 12.136 72.0758 11.92 72.9398 11.92C73.7198 11.92 74.3978 12.076 74.9738 12.388C75.5618 12.688 76.0298 13.066 76.3778 13.522V12.082H78.4478V22H76.3778V20.524C76.0298 20.992 75.5558 21.382 74.9558 21.694C74.3558 22.006 73.6718 22.162 72.9038 22.162C72.0518 22.162 71.2718 21.946 70.5638 21.514C69.8558 21.07 69.2918 20.458 68.8718 19.678C68.4638 18.886 68.2598 17.992 68.2598 16.996ZM76.3778 17.032C76.3778 16.348 76.2338 15.754 75.9458 15.25C75.6698 14.746 75.3038 14.362 74.8478 14.098C74.3918 13.834 73.8998 13.702 73.3718 13.702C72.8438 13.702 72.3518 13.834 71.8958 14.098C71.4398 14.35 71.0678 14.728 70.7798 15.232C70.5038 15.724 70.3658 16.312 70.3658 16.996C70.3658 17.68 70.5038 18.28 70.7798 18.796C71.0678 19.312 71.4398 19.708 71.8958 19.984C72.3638 20.248 72.8558 20.38 73.3718 20.38C73.8998 20.38 74.3918 20.248 74.8478 19.984C75.3038 19.72 75.6698 19.336 75.9458 18.832C76.2338 18.316 76.3778 17.716 76.3778 17.032ZM83.195 8.68V22H81.143V8.68H83.195Z" fill="white"/>
</svg>
