<svg width="158" height="44" viewBox="0 0 158 44" fill="none" xmlns="http://www.w3.org/2000/svg">
<path fill-rule="evenodd" clip-rule="evenodd" d="M31.1027 4.9432L33.2579 4.22852L33.7436 1.86258L31.9211 0.262207L29.6125 1.02778L29.1266 3.39373L30.7589 4.82688L30.2147 7.06738L24.6987 8.8966L20.3446 5.07348L14.4349 7.03329L13.2604 12.7524L7.42497 14.6876L6.25596 20.3799L4.49582 20.8955L2.79442 19.4016L0.485884 20.1672L0 22.5331L1.82266 24.1335L4.13119 23.3679L4.56634 21.2491L6.20826 20.7681L10.847 24.841L16.6022 22.9324L20.7828 26.6032L19.5916 32.4037L24.1045 36.3663L23.559 38.3032L21.3802 38.9403L20.8089 41.2873L22.5723 42.9519L24.9071 42.269L25.4785 39.922L23.8987 38.4311L24.4614 36.4329L30.1671 34.5406L31.4109 28.4842L27.0191 24.628L28.1678 19.0344L33.8458 17.1514L35.0897 11.0948L30.572 7.12818L31.1027 4.9432ZM17.7892 16.6392L23.3128 14.8074L24.4789 9.12938L20.2705 5.43424L14.7128 7.2773L13.554 12.9204L17.7892 16.6392ZM20.9376 26.3133L16.7982 22.6787L17.9312 17.1621L23.582 15.2881L27.8411 19.0278L26.7401 24.389L20.9376 26.3133ZM4.4308 21.081L2.74813 19.6035L0.616918 20.3103L0.168357 22.4945L1.85101 23.972L3.98221 23.2652L4.4308 21.081ZM16.3643 22.5197L10.9085 24.3289L6.60111 20.5468L7.74939 14.9554L13.2051 13.1462L17.5125 16.9283L16.3643 22.5197ZM27.9991 18.5992L33.4549 16.7899L34.6031 11.1986L30.2957 7.41644L24.84 9.22571L23.6917 14.8171L27.9991 18.5992ZM29.7754 34.1797L24.3197 35.9891L20.0122 32.207L21.1605 26.6155L26.6162 24.8063L30.9236 28.5884L29.7754 34.1797ZM30.9732 4.79452L33.1046 4.08778L33.553 1.90356L31.8704 0.426126L29.7392 1.13289L29.2906 3.31711L30.9732 4.79452Z" fill="#9A9A9A"/>
<path d="M32.7962 3.80029L31.0312 4.41201L29.6641 3.21158L30.062 1.39943L31.827 0.78772L33.1941 1.98815L32.7962 3.80029Z" fill="#8CB66E"/>
<path d="M21.5285 39.0873L23.6839 38.4569L25.3119 39.9937L24.7844 42.1602L22.6289 42.7906L21.001 41.2541L21.5285 39.0873Z" fill="white"/>
<path d="M21.801 39.3972L23.5974 38.858L24.9405 40.1257L24.4871 41.9323L22.6907 42.4711L21.3477 41.2034L21.801 39.3972Z" fill="#F25790"/>
<path d="M2.72643 20.0807L4.02758 21.2183L3.68259 22.8982L2.03649 23.4402L0.735352 22.3026L1.08032 20.6228L2.72643 20.0807Z" fill="#0A6AA6"/>
<path d="M15.5381 22.0642L10.9064 23.5977L7.24707 20.3847L8.21949 15.6381L12.8512 14.1045L16.5105 17.3175L15.5381 22.0642Z" fill="#0A6AA6"/>
<path d="M29.17 33.6721L24.5099 35.1993L20.8125 31.9529L21.7751 27.1792L26.4352 25.652L30.1326 28.8985L29.17 33.6721Z" fill="#D9414E"/>
<path d="M32.7248 16.1166L28.0782 17.7049L24.457 14.5254L25.4825 9.75753L30.129 8.16919L33.7502 11.3487L32.7248 16.1166Z" fill="#FFAF4F"/>
<path d="M59.904 23.728H55.248L54.448 26H52.544L56.528 14.864H58.64L62.624 26H60.704L59.904 23.728ZM59.392 22.24L57.584 17.072L55.76 22.24H59.392ZM63.7483 21.584C63.7483 20.6773 63.9296 19.8827 64.2923 19.2C64.6656 18.5067 65.1776 17.9733 65.8283 17.6C66.4789 17.2267 67.2256 17.04 68.0683 17.04C69.1349 17.04 70.0149 17.296 70.7083 17.808C71.4123 18.3093 71.8869 19.0293 72.1323 19.968H70.1643C70.0043 19.5307 69.7483 19.1893 69.3963 18.944C69.0443 18.6987 68.6016 18.576 68.0683 18.576C67.3216 18.576 66.7243 18.8427 66.2763 19.376C65.8389 19.8987 65.6203 20.6347 65.6203 21.584C65.6203 22.5333 65.8389 23.2747 66.2763 23.808C66.7243 24.3413 67.3216 24.608 68.0683 24.608C69.1243 24.608 69.8229 24.144 70.1643 23.216H72.1323C71.8763 24.112 71.3963 24.8267 70.6923 25.36C69.9883 25.8827 69.1136 26.144 68.0683 26.144C67.2256 26.144 66.4789 25.9573 65.8283 25.584C65.1776 25.2 64.6656 24.6667 64.2923 23.984C63.9296 23.2907 63.7483 22.4907 63.7483 21.584ZM73.342 21.584C73.342 20.6773 73.5233 19.8827 73.886 19.2C74.2593 18.5067 74.7713 17.9733 75.422 17.6C76.0727 17.2267 76.8193 17.04 77.662 17.04C78.7287 17.04 79.6087 17.296 80.302 17.808C81.006 18.3093 81.4807 19.0293 81.726 19.968H79.758C79.598 19.5307 79.342 19.1893 78.99 18.944C78.638 18.6987 78.1953 18.576 77.662 18.576C76.9153 18.576 76.318 18.8427 75.87 19.376C75.4327 19.8987 75.214 20.6347 75.214 21.584C75.214 22.5333 75.4327 23.2747 75.87 23.808C76.318 24.3413 76.9153 24.608 77.662 24.608C78.718 24.608 79.4167 24.144 79.758 23.216H81.726C81.47 24.112 80.99 24.8267 80.286 25.36C79.582 25.8827 78.7073 26.144 77.662 26.144C76.8193 26.144 76.0727 25.9573 75.422 25.584C74.7713 25.2 74.2593 24.6667 73.886 23.984C73.5233 23.2907 73.342 22.4907 73.342 21.584ZM84.4718 16.016C84.1411 16.016 83.8638 15.904 83.6398 15.68C83.4158 15.456 83.3038 15.1787 83.3038 14.848C83.3038 14.5173 83.4158 14.24 83.6398 14.016C83.8638 13.792 84.1411 13.68 84.4718 13.68C84.7918 13.68 85.0638 13.792 85.2878 14.016C85.5118 14.24 85.6238 14.5173 85.6238 14.848C85.6238 15.1787 85.5118 15.456 85.2878 15.68C85.0638 15.904 84.7918 16.016 84.4718 16.016ZM85.3678 17.184V26H83.5438V17.184H85.3678ZM91.5865 26.144C90.7545 26.144 90.0025 25.9573 89.3305 25.584C88.6585 25.2 88.1305 24.6667 87.7465 23.984C87.3625 23.2907 87.1705 22.4907 87.1705 21.584C87.1705 20.688 87.3678 19.8933 87.7625 19.2C88.1572 18.5067 88.6958 17.9733 89.3785 17.6C90.0612 17.2267 90.8238 17.04 91.6665 17.04C92.5092 17.04 93.2718 17.2267 93.9545 17.6C94.6372 17.9733 95.1758 18.5067 95.5705 19.2C95.9652 19.8933 96.1625 20.688 96.1625 21.584C96.1625 22.48 95.9598 23.2747 95.5545 23.968C95.1492 24.6613 94.5945 25.2 93.8905 25.584C93.1972 25.9573 92.4292 26.144 91.5865 26.144ZM91.5865 24.56C92.0558 24.56 92.4932 24.448 92.8985 24.224C93.3145 24 93.6505 23.664 93.9065 23.216C94.1625 22.768 94.2905 22.224 94.2905 21.584C94.2905 20.944 94.1678 20.4053 93.9225 19.968C93.6772 19.52 93.3518 19.184 92.9465 18.96C92.5412 18.736 92.1038 18.624 91.6345 18.624C91.1652 18.624 90.7278 18.736 90.3225 18.96C89.9278 19.184 89.6132 19.52 89.3785 19.968C89.1438 20.4053 89.0265 20.944 89.0265 21.584C89.0265 22.5333 89.2665 23.2693 89.7465 23.792C90.2372 24.304 90.8505 24.56 91.5865 24.56ZM93.3145 14.672L89.7785 16.416V15.072L93.3145 13.12V14.672ZM102.414 17.04C103.107 17.04 103.726 17.184 104.27 17.472C104.824 17.76 105.256 18.1867 105.566 18.752C105.875 19.3173 106.03 20 106.03 20.8V26H104.222V21.072C104.222 20.2827 104.024 19.68 103.63 19.264C103.235 18.8373 102.696 18.624 102.014 18.624C101.331 18.624 100.787 18.8373 100.382 19.264C99.987 19.68 99.7896 20.2827 99.7896 21.072V26H97.9656V17.184H99.7896V18.192C100.088 17.8293 100.467 17.5467 100.926 17.344C101.395 17.1413 101.891 17.04 102.414 17.04ZM120.289 18.192C120.289 18.7573 120.155 19.2907 119.889 19.792C119.622 20.2933 119.195 20.704 118.609 21.024C118.022 21.3333 117.27 21.488 116.353 21.488H114.337V26H112.513V14.88H116.353C117.206 14.88 117.926 15.0293 118.513 15.328C119.11 15.616 119.553 16.0107 119.841 16.512C120.139 17.0133 120.289 17.5733 120.289 18.192ZM116.353 20C117.046 20 117.563 19.8453 117.905 19.536C118.246 19.216 118.417 18.768 118.417 18.192C118.417 16.976 117.729 16.368 116.353 16.368H114.337V20H116.353ZM121.42 21.552C121.42 20.6667 121.601 19.8827 121.964 19.2C122.337 18.5173 122.839 17.9893 123.468 17.616C124.108 17.232 124.812 17.04 125.58 17.04C126.273 17.04 126.876 17.1787 127.388 17.456C127.911 17.7227 128.327 18.0587 128.636 18.464V17.184H130.476V26H128.636V24.688C128.327 25.104 127.905 25.4507 127.372 25.728C126.839 26.0053 126.231 26.144 125.548 26.144C124.791 26.144 124.097 25.952 123.468 25.568C122.839 25.1733 122.337 24.6293 121.964 23.936C121.601 23.232 121.42 22.4373 121.42 21.552ZM128.636 21.584C128.636 20.976 128.508 20.448 128.252 20C128.007 19.552 127.681 19.2107 127.276 18.976C126.871 18.7413 126.433 18.624 125.964 18.624C125.495 18.624 125.057 18.7413 124.652 18.976C124.247 19.2 123.916 19.536 123.66 19.984C123.415 20.4213 123.292 20.944 123.292 21.552C123.292 22.16 123.415 22.6933 123.66 23.152C123.916 23.6107 124.247 23.9627 124.652 24.208C125.068 24.4427 125.505 24.56 125.964 24.56C126.433 24.56 126.871 24.4427 127.276 24.208C127.681 23.9733 128.007 23.632 128.252 23.184C128.508 22.7253 128.636 22.192 128.636 21.584ZM137.32 17.04C138.013 17.04 138.632 17.184 139.176 17.472C139.731 17.76 140.163 18.1867 140.472 18.752C140.781 19.3173 140.936 20 140.936 20.8V26H139.128V21.072C139.128 20.2827 138.931 19.68 138.536 19.264C138.141 18.8373 137.603 18.624 136.92 18.624C136.237 18.624 135.693 18.8373 135.288 19.264C134.893 19.68 134.696 20.2827 134.696 21.072V26H132.872V17.184H134.696V18.192C134.995 17.8293 135.373 17.5467 135.832 17.344C136.301 17.1413 136.797 17.04 137.32 17.04ZM142.655 21.552C142.655 20.6667 142.836 19.8827 143.199 19.2C143.572 18.5173 144.073 17.9893 144.703 17.616C145.343 17.232 146.047 17.04 146.815 17.04C147.508 17.04 148.111 17.1787 148.623 17.456C149.145 17.7227 149.561 18.0587 149.871 18.464V17.184H151.711V26H149.871V24.688C149.561 25.104 149.14 25.4507 148.607 25.728C148.073 26.0053 147.465 26.144 146.783 26.144C146.025 26.144 145.332 25.952 144.703 25.568C144.073 25.1733 143.572 24.6293 143.199 23.936C142.836 23.232 142.655 22.4373 142.655 21.552ZM149.871 21.584C149.871 20.976 149.743 20.448 149.487 20C149.241 19.552 148.916 19.2107 148.511 18.976C148.105 18.7413 147.668 18.624 147.199 18.624C146.729 18.624 146.292 18.7413 145.887 18.976C145.481 19.2 145.151 19.536 144.895 19.984C144.649 20.4213 144.527 20.944 144.527 21.552C144.527 22.16 144.649 22.6933 144.895 23.152C145.151 23.6107 145.481 23.9627 145.887 24.208C146.303 24.4427 146.74 24.56 147.199 24.56C147.668 24.56 148.105 24.4427 148.511 24.208C148.916 23.9733 149.241 23.632 149.487 23.184C149.743 22.7253 149.871 22.192 149.871 21.584ZM155.93 14.16V26H154.106V14.16H155.93Z" fill="white"/>
</svg>
